<?xml version="1.0" encoding="utf-8"?>
<!-- Generator: Adobe Illustrator 21.0.2, SVG Export Plug-In . SVG Version: 6.00 Build 0)  -->
<svg version="1.1" id="Layer_1" xmlns="http://www.w3.org/2000/svg" xmlns:xlink="http://www.w3.org/1999/xlink" x="0px" y="0px"
	 viewBox="0 0 500 500" style="enable-background:new 0 0 500 500;" xml:space="preserve">
<style type="text/css">
	.st0{fill:#EEEEEE;}
</style>
<path class="st0" d="M46.7,313.9c0.6-43,7.8-82.5,23.2-120.3c6.7-16.5,15.8-31.2,29.8-43.4c42.9-36.9,91.5-58.8,147.8-66.8
	c33.9-4.8,67-15.7,100.7-22.9c19.1-4.2,38.5-6.5,57.8-9.6c2.8-0.5,5.8-0.1,8.6,0.1c24.4,1.6,37.5,14.5,39.8,38.7
	c1.8,19.5-0.5,38.7-4.4,57.7c-10.4,50.5-28.1,98.4-54.9,142.6c-7.4,12.1-16.1,23.6-25,34.8c-11,13.8-25.1,24-41,32.2
	c-29.8,15.6-58.9,32.7-88.5,48.6c-26.5,14.3-53.5,27.3-83.3,33c-25.9,4.9-50.6,2.9-71.7-14.9c-14.2-12.1-23-27.9-29.2-45.3
	C49.1,357,47,334.5,46.7,313.9z M449.3,95 M382.1,299.9"/>
</svg>
