<?xml version="1.0" encoding="utf-8"?>
<!-- Generator: Adobe Illustrator 21.0.2, SVG Export Plug-In . SVG Version: 6.00 Build 0)  -->
<svg version="1.1" id="Layer_1" xmlns="http://www.w3.org/2000/svg" xmlns:xlink="http://www.w3.org/1999/xlink" x="0px" y="0px"
	 viewBox="0 0 500 500" style="enable-background:new 0 0 500 500;" xml:space="preserve">
<path d="M84.3,301.4c0.5-35.1,6.4-67.3,18.9-98.2c5.5-13.5,12.9-25.5,24.3-35.4c35-30.1,74.7-48,120.6-54.5
	c27.7-3.9,54.7-12.8,82.2-18.7c15.6-3.4,31.4-5.3,47.2-7.8c2.3-0.4,4.7-0.1,7,0.1c19.9,1.3,30.6,11.8,32.5,31.6
	c1.5,15.9-0.4,31.6-3.6,47.1c-8.5,41.2-22.9,80.3-44.8,116.4c-6,9.9-13.1,19.3-20.4,28.4c-9,11.3-20.5,19.6-33.5,26.3
	c-24.3,12.7-48.1,26.7-72.2,39.7c-21.6,11.7-43.7,22.3-68,26.9c-21.1,4-41.3,2.4-58.5-12.2c-11.6-9.9-18.8-22.8-23.8-37
	C86.2,336.6,84.5,318.2,84.3,301.4z M412.8,129.3c0-2.2,0-4.3,0-6.5c-0.5-20.6-10.7-31.4-31.3-31.2c-11.6,0.1-23.3,1.7-34.6,4.1
	c-37.6,7.9-74.3,19.8-112.6,25.1c-38.3,5.3-71,23.4-100.6,48c-11.4,9.5-19.7,20.6-25.3,34.1c-8.5,20.4-13.9,41.7-16.8,63.5
	c-4,30.2-4.4,60.2,6.5,89.2c12.4,32.9,36.1,49.8,72.7,43.6c23.3-4,44.6-13.6,65.2-24.6c27-14.4,53.8-29.3,80.6-44.3
	c5.8-3.2,11.9-6.6,16.4-11.2c8.9-9.2,17.7-18.7,25-29.1c19.2-27.7,32.2-58.6,42.1-90.7C407.1,176.5,412.2,153.4,412.8,129.3z"/>
</svg>
